<svg width="1590" height="67" viewBox="0 0 1590 67" fill="none" xmlns="http://www.w3.org/2000/svg">
<rect x="1155.05" y="17.4365" width="187.92" height="33.2934" fill="#31000F"/>
<g filter="url(#filter0_d_111_27)">
<path fill-rule="evenodd" clip-rule="evenodd" d="M1355.75 6.69727H1144.25V60.3962H1355.75V6.69727ZM1170.35 24.1494C1170.35 27.6094 1167.53 30.4143 1164.05 30.4143C1160.57 30.4143 1157.75 27.6094 1157.75 24.1494C1157.75 20.6894 1160.57 17.8845 1164.05 17.8845C1167.53 17.8845 1170.35 20.6894 1170.35 24.1494ZM1182.95 30.4143C1186.43 30.4143 1189.25 27.6094 1189.25 24.1494C1189.25 20.6894 1186.43 17.8845 1182.95 17.8845C1179.47 17.8845 1176.65 20.6894 1176.65 24.1494C1176.65 27.6094 1179.47 30.4143 1182.95 30.4143ZM1206.11 33.8152V23.1649H1219.52V21.6435H1204.26V46.9715H1206.11V35.3367H1217.72V33.8152H1206.11ZM1231.3 24.9728L1236.49 37.7711H1225.09L1230.28 24.9907C1230.37 24.7759 1230.46 24.5432 1230.55 24.2926C1230.63 24.0301 1230.71 23.7556 1230.78 23.4692C1230.95 24.054 1231.12 24.5552 1231.3 24.9728ZM1240.7 46.9715H1242.12L1231.7 21.6435H1229.88L1219.46 46.9715H1220.86C1221.03 46.9715 1221.18 46.9238 1221.3 46.8283C1221.42 46.7328 1221.5 46.6195 1221.55 46.4882L1224.54 39.1314H1237.05L1240.03 46.4882C1240.09 46.6314 1240.18 46.7507 1240.29 46.8462C1240.39 46.9297 1240.53 46.9715 1240.7 46.9715ZM1254.77 45.5037C1257 45.5037 1258.69 45.0264 1259.83 44.0717C1260.98 43.1052 1261.55 41.7507 1261.55 40.0085C1261.55 39.209 1261.4 38.493 1261.09 37.8606C1260.79 37.2162 1260.35 36.6732 1259.77 36.2317C1259.2 35.7782 1258.49 35.4322 1257.65 35.1935C1256.81 34.9548 1255.85 34.8355 1254.79 34.8355H1248.38V45.5037H1254.77ZM1248.38 23.0933V33.493H1253.89C1255.06 33.493 1256.06 33.3439 1256.89 33.0456C1257.73 32.7472 1258.42 32.3534 1258.94 31.8642C1259.48 31.3749 1259.88 30.82 1260.13 30.1995C1260.38 29.579 1260.51 28.9406 1260.51 28.2842C1260.51 26.5778 1259.96 25.289 1258.87 24.4179C1257.79 23.5349 1256.12 23.0933 1253.85 23.0933H1248.38ZM1253.85 21.6435C1255.3 21.6435 1256.56 21.7867 1257.63 22.0731C1258.7 22.3595 1259.58 22.7831 1260.28 23.3439C1260.97 23.8929 1261.49 24.5671 1261.82 25.3666C1262.16 26.1661 1262.33 27.073 1262.33 28.0873C1262.33 28.7556 1262.21 29.4 1261.97 30.0205C1261.74 30.641 1261.4 31.2138 1260.96 31.7389C1260.53 32.2639 1259.99 32.7234 1259.34 33.1171C1258.7 33.499 1257.97 33.7914 1257.14 33.9942C1259.15 34.2806 1260.68 34.9429 1261.75 35.9811C1262.83 37.0073 1263.37 38.3617 1263.37 40.0443C1263.37 41.1183 1263.18 42.0849 1262.8 42.9441C1262.41 43.8032 1261.85 44.5312 1261.12 45.1278C1260.39 45.7245 1259.49 46.1839 1258.42 46.5061C1257.35 46.8164 1256.14 46.9715 1254.79 46.9715H1246.52V21.6435H1253.85ZM1278.74 33.7615C1277.85 34.0241 1276.84 34.1553 1275.71 34.1553H1271.3V23.0933H1275.97C1278.23 23.0933 1279.96 23.5289 1281.13 24.4C1282.32 25.2711 1282.91 26.6076 1282.91 28.4095C1282.91 29.2926 1282.75 30.0861 1282.43 30.7902C1282.1 31.4942 1281.63 32.0969 1281.01 32.5981C1280.39 33.0993 1279.64 33.4871 1278.74 33.7615ZM1285.43 46.9715H1287.02L1278.25 36.0169C1278.02 35.7186 1277.77 35.4799 1277.48 35.3009C1278.59 35.1696 1279.6 34.9131 1280.48 34.5312C1281.38 34.1494 1282.15 33.6601 1282.77 33.0635C1283.41 32.4549 1283.89 31.7508 1284.23 30.9513C1284.56 30.1518 1284.73 29.2687 1284.73 28.3021C1284.73 26.1184 1284 24.4657 1282.54 23.3439C1281.08 22.2103 1278.89 21.6435 1275.97 21.6435H1269.45V46.9715H1271.3V35.5157H1274.63C1274.89 35.5157 1275.1 35.5276 1275.26 35.5515C1275.44 35.5754 1275.59 35.6171 1275.71 35.6768C1275.85 35.7245 1275.96 35.7961 1276.06 35.8916C1276.16 35.9871 1276.27 36.1004 1276.36 36.2317L1284.53 46.5061C1284.65 46.6851 1284.78 46.8104 1284.91 46.882C1285.06 46.9417 1285.23 46.9715 1285.43 46.9715ZM1293.35 46.9715H1291.5V21.6435H1293.35V46.9715ZM1317.17 23.0038C1317.34 22.7413 1317.43 22.4967 1317.43 22.27V21.6435H1299.01V23.1649H1314.96L1298.76 45.6648C1298.7 45.7603 1298.65 45.8617 1298.6 45.9691C1298.56 46.0646 1298.54 46.1779 1298.54 46.3092V46.9715H1317.3V45.45H1301.01L1317.17 23.0038ZM1339.12 22.27C1339.12 22.4967 1339.04 22.7413 1338.87 23.0038L1322.71 45.45H1339V46.9715H1320.24V46.3092C1320.24 46.1779 1320.26 46.0646 1320.29 45.9691C1320.34 45.8617 1320.4 45.7603 1320.46 45.6648L1336.66 23.1649H1320.71V21.6435H1339.12V22.27ZM1164.05 49.2089C1167.53 49.2089 1170.35 46.4041 1170.35 42.9441C1170.35 39.4841 1167.53 36.6792 1164.05 36.6792C1160.57 36.6792 1157.75 39.4841 1157.75 42.9441C1157.75 46.4041 1160.57 49.2089 1164.05 49.2089Z" fill="#FFA6C1"/>
</g>
<rect x="927.547" y="17.4365" width="187.92" height="33.2934" fill="#31000F"/>
<g filter="url(#filter1_d_111_27)">
<path fill-rule="evenodd" clip-rule="evenodd" d="M1128.25 6.69727H916.746V60.3962H1128.25V6.69727ZM942.846 24.1494C942.846 27.6094 940.025 30.4143 936.546 30.4143C933.067 30.4143 930.246 27.6094 930.246 24.1494C930.246 20.6894 933.067 17.8845 936.546 17.8845C940.025 17.8845 942.846 20.6894 942.846 24.1494ZM955.446 30.4143C958.925 30.4143 961.746 27.6094 961.746 24.1494C961.746 20.6894 958.925 17.8845 955.446 17.8845C951.967 17.8845 949.146 20.6894 949.146 24.1494C949.146 27.6094 951.967 30.4143 955.446 30.4143ZM978.612 33.8152V23.1649H992.022V21.6435H976.758V46.9715H978.612V35.3367H990.222V33.8152H978.612ZM1003.8 24.9728L1008.99 37.7711H997.594L1002.78 24.9907C1002.87 24.7759 1002.96 24.5432 1003.05 24.2926C1003.13 24.0301 1003.21 23.7556 1003.28 23.4692C1003.45 24.054 1003.62 24.5552 1003.8 24.9728ZM1013.2 46.9715H1014.62L1004.2 21.6435H1002.38L991.961 46.9715H993.365C993.533 46.9715 993.676 46.9238 993.797 46.8283C993.917 46.7328 994 46.6195 994.049 46.4882L997.037 39.1314H1009.55L1012.53 46.4882C1012.59 46.6314 1012.68 46.7507 1012.79 46.8462C1012.89 46.9297 1013.03 46.9715 1013.2 46.9715ZM1027.27 45.5037C1029.5 45.5037 1031.19 45.0264 1032.33 44.0717C1033.48 43.1052 1034.05 41.7507 1034.05 40.0085C1034.05 39.209 1033.9 38.493 1033.59 37.8606C1033.29 37.2162 1032.85 36.6732 1032.27 36.2317C1031.7 35.7782 1030.99 35.4322 1030.15 35.1935C1029.31 34.9548 1028.35 34.8355 1027.29 34.8355H1020.88V45.5037H1027.27ZM1020.88 23.0933V33.493H1026.39C1027.56 33.493 1028.56 33.3439 1029.39 33.0456C1030.23 32.7472 1030.92 32.3534 1031.44 31.8642C1031.98 31.3749 1032.38 30.82 1032.63 30.1995C1032.88 29.579 1033.01 28.9406 1033.01 28.2842C1033.01 26.5778 1032.46 25.289 1031.37 24.4179C1030.29 23.5349 1028.62 23.0933 1026.35 23.0933H1020.88ZM1026.35 21.6435C1027.8 21.6435 1029.06 21.7867 1030.13 22.0731C1031.2 22.3595 1032.08 22.7831 1032.78 23.3439C1033.47 23.8929 1033.99 24.5671 1034.32 25.3666C1034.66 26.1661 1034.83 27.073 1034.83 28.0873C1034.83 28.7556 1034.71 29.4 1034.47 30.0205C1034.24 30.641 1033.9 31.2138 1033.46 31.7389C1033.03 32.2639 1032.49 32.7234 1031.84 33.1171C1031.2 33.499 1030.47 33.7914 1029.64 33.9942C1031.65 34.2806 1033.18 34.9429 1034.25 35.9811C1035.33 37.0073 1035.87 38.3617 1035.87 40.0443C1035.87 41.1183 1035.68 42.0849 1035.3 42.9441C1034.91 43.8032 1034.35 44.5312 1033.62 45.1278C1032.89 45.7245 1031.99 46.1839 1030.92 46.5061C1029.85 46.8164 1028.64 46.9715 1027.29 46.9715H1019.02V21.6435H1026.35ZM1051.24 33.7615C1050.35 34.0241 1049.34 34.1553 1048.21 34.1553H1043.8V23.0933H1048.47C1050.73 23.0933 1052.46 23.5289 1053.63 24.4C1054.82 25.2711 1055.41 26.6076 1055.41 28.4095C1055.41 29.2926 1055.25 30.0861 1054.93 30.7902C1054.6 31.4942 1054.13 32.0969 1053.51 32.5981C1052.89 33.0993 1052.14 33.4871 1051.24 33.7615ZM1057.93 46.9715H1059.52L1050.75 36.0169C1050.52 35.7186 1050.27 35.4799 1049.98 35.3009C1051.09 35.1696 1052.1 34.9131 1052.98 34.5312C1053.88 34.1494 1054.65 33.6601 1055.27 33.0635C1055.91 32.4549 1056.39 31.7508 1056.73 30.9513C1057.06 30.1518 1057.23 29.2687 1057.23 28.3021C1057.23 26.1184 1056.5 24.4657 1055.04 23.3439C1053.58 22.2103 1051.39 21.6435 1048.47 21.6435H1041.95V46.9715H1043.8V35.5157H1047.13C1047.39 35.5157 1047.6 35.5276 1047.76 35.5515C1047.94 35.5754 1048.09 35.6171 1048.21 35.6768C1048.35 35.7245 1048.46 35.7961 1048.56 35.8916C1048.66 35.9871 1048.77 36.1004 1048.86 36.2317L1057.03 46.5061C1057.15 46.6851 1057.28 46.8104 1057.41 46.882C1057.56 46.9417 1057.73 46.9715 1057.93 46.9715ZM1065.85 46.9715H1064V21.6435H1065.85V46.9715ZM1089.67 23.0038C1089.84 22.7413 1089.93 22.4967 1089.93 22.27V21.6435H1071.51V23.1649H1087.46L1071.26 45.6648C1071.2 45.7603 1071.15 45.8617 1071.1 45.9691C1071.06 46.0646 1071.04 46.1779 1071.04 46.3092V46.9715H1089.8V45.45H1073.51L1089.67 23.0038ZM1111.62 22.27C1111.62 22.4967 1111.54 22.7413 1111.37 23.0038L1095.21 45.45H1111.5V46.9715H1092.74V46.3092C1092.74 46.1779 1092.76 46.0646 1092.79 45.9691C1092.84 45.8617 1092.9 45.7603 1092.96 45.6648L1109.16 23.1649H1093.21V21.6435H1111.62V22.27ZM936.546 49.2089C940.025 49.2089 942.846 46.4041 942.846 42.9441C942.846 39.4841 940.025 36.6792 936.546 36.6792C933.067 36.6792 930.246 39.4841 930.246 42.9441C930.246 46.4041 933.067 49.2089 936.546 49.2089Z" fill="#FFA6C1"/>
</g>
<rect x="1382.55" y="17.4365" width="187.92" height="33.2934" fill="#31000F"/>
<g filter="url(#filter2_d_111_27)">
<path fill-rule="evenodd" clip-rule="evenodd" d="M1583.25 6.69727H1371.75V60.3962H1583.25V6.69727ZM1397.85 24.1494C1397.85 27.6094 1395.03 30.4143 1391.55 30.4143C1388.07 30.4143 1385.25 27.6094 1385.25 24.1494C1385.25 20.6894 1388.07 17.8845 1391.55 17.8845C1395.03 17.8845 1397.85 20.6894 1397.85 24.1494ZM1410.45 30.4143C1413.93 30.4143 1416.75 27.6094 1416.75 24.1494C1416.75 20.6894 1413.93 17.8845 1410.45 17.8845C1406.97 17.8845 1404.15 20.6894 1404.15 24.1494C1404.15 27.6094 1406.97 30.4143 1410.45 30.4143ZM1433.61 33.8152V23.1649H1447.02V21.6435H1431.76V46.9715H1433.61V35.3367H1445.22V33.8152H1433.61ZM1458.8 24.9728L1463.99 37.7711H1452.59L1457.78 24.9907C1457.87 24.7759 1457.96 24.5432 1458.05 24.2926C1458.13 24.0301 1458.21 23.7556 1458.28 23.4692C1458.45 24.054 1458.62 24.5552 1458.8 24.9728ZM1468.2 46.9715H1469.62L1459.2 21.6435H1457.38L1446.96 46.9715H1448.36C1448.53 46.9715 1448.68 46.9238 1448.8 46.8283C1448.92 46.7328 1449 46.6195 1449.05 46.4882L1452.04 39.1314H1464.55L1467.53 46.4882C1467.59 46.6314 1467.68 46.7507 1467.79 46.8462C1467.89 46.9297 1468.03 46.9715 1468.2 46.9715ZM1482.27 45.5037C1484.5 45.5037 1486.19 45.0264 1487.33 44.0717C1488.48 43.1052 1489.05 41.7507 1489.05 40.0085C1489.05 39.209 1488.9 38.493 1488.59 37.8606C1488.29 37.2162 1487.85 36.6732 1487.27 36.2317C1486.7 35.7782 1485.99 35.4322 1485.15 35.1935C1484.31 34.9548 1483.35 34.8355 1482.29 34.8355H1475.88V45.5037H1482.27ZM1475.88 23.0933V33.493H1481.39C1482.56 33.493 1483.56 33.3439 1484.39 33.0456C1485.23 32.7472 1485.92 32.3534 1486.44 31.8642C1486.98 31.3749 1487.38 30.82 1487.63 30.1995C1487.88 29.579 1488.01 28.9406 1488.01 28.2842C1488.01 26.5778 1487.46 25.289 1486.37 24.4179C1485.29 23.5349 1483.62 23.0933 1481.35 23.0933H1475.88ZM1481.35 21.6435C1482.8 21.6435 1484.06 21.7867 1485.13 22.0731C1486.2 22.3595 1487.08 22.7831 1487.78 23.3439C1488.47 23.8929 1488.99 24.5671 1489.32 25.3666C1489.66 26.1661 1489.83 27.073 1489.83 28.0873C1489.83 28.7556 1489.71 29.4 1489.47 30.0205C1489.24 30.641 1488.9 31.2138 1488.46 31.7389C1488.03 32.2639 1487.49 32.7234 1486.84 33.1171C1486.2 33.499 1485.47 33.7914 1484.64 33.9942C1486.65 34.2806 1488.18 34.9429 1489.25 35.9811C1490.33 37.0073 1490.87 38.3617 1490.87 40.0443C1490.87 41.1183 1490.68 42.0849 1490.3 42.9441C1489.91 43.8032 1489.35 44.5312 1488.62 45.1278C1487.89 45.7245 1486.99 46.1839 1485.92 46.5061C1484.85 46.8164 1483.64 46.9715 1482.29 46.9715H1474.02V21.6435H1481.35ZM1506.24 33.7615C1505.35 34.0241 1504.34 34.1553 1503.21 34.1553H1498.8V23.0933H1503.47C1505.73 23.0933 1507.46 23.5289 1508.63 24.4C1509.82 25.2711 1510.41 26.6076 1510.41 28.4095C1510.41 29.2926 1510.25 30.0861 1509.93 30.7902C1509.6 31.4942 1509.13 32.0969 1508.51 32.5981C1507.89 33.0993 1507.14 33.4871 1506.24 33.7615ZM1512.93 46.9715H1514.52L1505.75 36.0169C1505.52 35.7186 1505.27 35.4799 1504.98 35.3009C1506.09 35.1696 1507.1 34.9131 1507.98 34.5312C1508.88 34.1494 1509.65 33.6601 1510.27 33.0635C1510.91 32.4549 1511.39 31.7508 1511.73 30.9513C1512.06 30.1518 1512.23 29.2687 1512.23 28.3021C1512.23 26.1184 1511.5 24.4657 1510.04 23.3439C1508.58 22.2103 1506.39 21.6435 1503.47 21.6435H1496.95V46.9715H1498.8V35.5157H1502.13C1502.39 35.5157 1502.6 35.5276 1502.76 35.5515C1502.94 35.5754 1503.09 35.6171 1503.21 35.6768C1503.35 35.7245 1503.46 35.7961 1503.56 35.8916C1503.66 35.9871 1503.77 36.1004 1503.86 36.2317L1512.03 46.5061C1512.15 46.6851 1512.28 46.8104 1512.41 46.882C1512.56 46.9417 1512.73 46.9715 1512.93 46.9715ZM1520.85 46.9715H1519V21.6435H1520.85V46.9715ZM1544.67 23.0038C1544.84 22.7413 1544.93 22.4967 1544.93 22.27V21.6435H1526.51V23.1649H1542.46L1526.26 45.6648C1526.2 45.7603 1526.15 45.8617 1526.1 45.9691C1526.06 46.0646 1526.04 46.1779 1526.04 46.3092V46.9715H1544.8V45.45H1528.51L1544.67 23.0038ZM1566.62 22.27C1566.62 22.4967 1566.54 22.7413 1566.37 23.0038L1550.21 45.45H1566.5V46.9715H1547.74V46.3092C1547.74 46.1779 1547.76 46.0646 1547.79 45.9691C1547.84 45.8617 1547.9 45.7603 1547.96 45.6648L1564.16 23.1649H1548.21V21.6435H1566.62V22.27ZM1391.55 49.2089C1395.03 49.2089 1397.85 46.4041 1397.85 42.9441C1397.85 39.4841 1395.03 36.6792 1391.55 36.6792C1388.07 36.6792 1385.25 39.4841 1385.25 42.9441C1385.25 46.4041 1388.07 49.2089 1391.55 49.2089Z" fill="#FFA6C1"/>
</g>
<rect x="17.3008" y="17.7383" width="187.92" height="33.2934" fill="#31000F"/>
<g filter="url(#filter3_d_111_27)">
<path fill-rule="evenodd" clip-rule="evenodd" d="M218 6.99902H6.5V60.698H218V6.99902ZM32.6 24.4512C32.6 27.9112 29.7794 30.7161 26.3 30.7161C22.8206 30.7161 20 27.9112 20 24.4512C20 20.9912 22.8206 18.1863 26.3 18.1863C29.7794 18.1863 32.6 20.9912 32.6 24.4512ZM45.2 30.7161C48.6794 30.7161 51.5 27.9112 51.5 24.4512C51.5 20.9912 48.6794 18.1863 45.2 18.1863C41.7206 18.1863 38.9 20.9912 38.9 24.4512C38.9 27.9112 41.7206 30.7161 45.2 30.7161ZM68.366 34.117V23.4667H81.776V21.9452H66.512V47.2732H68.366V35.6385H79.976V34.117H68.366ZM93.5584 25.2746L98.7424 38.0728H87.3484L92.5324 25.2925C92.6284 25.0777 92.7184 24.845 92.8024 24.5944C92.8864 24.3319 92.9644 24.0574 93.0364 23.771C93.2044 24.3557 93.3784 24.8569 93.5584 25.2746ZM102.954 47.2732H104.376L93.9544 21.9452H92.1364L81.7144 47.2732H83.1184C83.2864 47.2732 83.4304 47.2255 83.5504 47.13C83.6704 47.0346 83.7544 46.9212 83.8024 46.79L86.7904 39.4332H99.3004L102.288 46.79C102.348 46.9331 102.432 47.0525 102.54 47.1479C102.648 47.2315 102.786 47.2732 102.954 47.2732ZM117.022 45.8055C119.254 45.8055 120.94 45.3281 122.08 44.3735C123.232 43.4069 123.808 42.0525 123.808 40.3103C123.808 39.5108 123.652 38.7948 123.34 38.1623C123.04 37.5179 122.602 36.975 122.026 36.5334C121.45 36.08 120.742 35.7339 119.902 35.4953C119.062 35.2566 118.108 35.1373 117.04 35.1373H110.632V45.8055H117.022ZM110.632 23.3951V33.7948H116.14C117.316 33.7948 118.318 33.6456 119.146 33.3473C119.986 33.049 120.67 32.6552 121.198 32.1659C121.738 31.6767 122.134 31.1218 122.386 30.5013C122.638 29.8807 122.764 29.2423 122.764 28.586C122.764 26.8796 122.218 25.5908 121.126 24.7197C120.046 23.8366 118.372 23.3951 116.104 23.3951H110.632ZM116.104 21.9452C117.556 21.9452 118.816 22.0884 119.884 22.3748C120.952 22.6612 121.834 23.0848 122.53 23.6457C123.226 24.1946 123.742 24.8688 124.078 25.6684C124.414 26.4679 124.582 27.3748 124.582 28.3891C124.582 29.0574 124.462 29.7017 124.222 30.3223C123.994 30.9428 123.658 31.5156 123.214 32.0406C122.782 32.5657 122.242 33.0251 121.594 33.4189C120.958 33.8008 120.226 34.0931 119.398 34.296C121.402 34.5824 122.938 35.2447 124.006 36.2829C125.086 37.3091 125.626 38.6635 125.626 40.3461C125.626 41.4201 125.434 42.3866 125.05 43.2458C124.666 44.105 124.108 44.8329 123.376 45.4296C122.644 46.0262 121.744 46.4857 120.676 46.8079C119.608 47.1181 118.396 47.2732 117.04 47.2732H108.778V21.9452H116.104ZM140.992 34.0633C140.104 34.3258 139.096 34.4571 137.968 34.4571H133.558V23.3951H138.22C140.488 23.3951 142.21 23.8307 143.386 24.7018C144.574 25.5729 145.168 26.9094 145.168 28.7113C145.168 29.5944 145.006 30.3879 144.682 31.092C144.358 31.796 143.884 32.3986 143.26 32.8998C142.648 33.401 141.892 33.7888 140.992 34.0633ZM147.688 47.2732H149.272L140.506 36.3187C140.278 36.0203 140.02 35.7817 139.732 35.6027C140.848 35.4714 141.85 35.2148 142.738 34.833C143.638 34.4511 144.4 33.9619 145.024 33.3652C145.66 32.7566 146.146 32.0526 146.482 31.2531C146.818 30.4535 146.986 29.5705 146.986 28.6039C146.986 26.4201 146.254 24.7674 144.79 23.6457C143.338 22.5121 141.148 21.9452 138.22 21.9452H131.704V47.2732H133.558V35.8175H136.888C137.14 35.8175 137.35 35.8294 137.518 35.8533C137.698 35.8771 137.848 35.9189 137.968 35.9786C138.1 36.0263 138.214 36.0979 138.31 36.1934C138.418 36.2888 138.52 36.4022 138.616 36.5334L146.788 46.8079C146.908 46.9868 147.034 47.1121 147.166 47.1837C147.31 47.2434 147.484 47.2732 147.688 47.2732ZM155.606 47.2732H153.752V21.9452H155.606V47.2732ZM179.428 23.3056C179.596 23.0431 179.68 22.7984 179.68 22.5717V21.9452H161.266V23.4667H177.214L161.014 45.9666C160.954 46.062 160.9 46.1635 160.852 46.2709C160.816 46.3663 160.798 46.4797 160.798 46.611V47.2732H179.554V45.7518H163.264L179.428 23.3056ZM201.376 22.5717C201.376 22.7984 201.292 23.0431 201.124 23.3056L184.96 45.7518H201.25V47.2732H182.494V46.611C182.494 46.4797 182.512 46.3663 182.548 46.2709C182.596 46.1635 182.65 46.062 182.71 45.9666L198.91 23.4667H182.962V21.9452H201.376V22.5717ZM26.3 49.5107C29.7794 49.5107 32.6 46.7058 32.6 43.2458C32.6 39.7858 29.7794 36.9809 26.3 36.9809C22.8206 36.9809 20 39.7858 20 43.2458C20 46.7058 22.8206 49.5107 26.3 49.5107Z" fill="#FFA6C1"/>
</g>
<rect x="472.301" y="17.7383" width="187.92" height="33.2934" fill="#31000F"/>
<g filter="url(#filter4_d_111_27)">
<path fill-rule="evenodd" clip-rule="evenodd" d="M673 6.99902H461.5V60.698H673V6.99902ZM487.6 24.4512C487.6 27.9112 484.779 30.7161 481.3 30.7161C477.821 30.7161 475 27.9112 475 24.4512C475 20.9912 477.821 18.1863 481.3 18.1863C484.779 18.1863 487.6 20.9912 487.6 24.4512ZM500.2 30.7161C503.679 30.7161 506.5 27.9112 506.5 24.4512C506.5 20.9912 503.679 18.1863 500.2 18.1863C496.721 18.1863 493.9 20.9912 493.9 24.4512C493.9 27.9112 496.721 30.7161 500.2 30.7161ZM523.366 34.117V23.4667H536.776V21.9452H521.512V47.2732H523.366V35.6385H534.976V34.117H523.366ZM548.558 25.2746L553.742 38.0728H542.348L547.532 25.2925C547.628 25.0777 547.718 24.845 547.802 24.5944C547.886 24.3319 547.964 24.0574 548.036 23.771C548.204 24.3557 548.378 24.8569 548.558 25.2746ZM557.954 47.2732H559.376L548.954 21.9452H547.136L536.714 47.2732H538.118C538.286 47.2732 538.43 47.2255 538.55 47.13C538.67 47.0346 538.754 46.9212 538.802 46.79L541.79 39.4332H554.3L557.288 46.79C557.348 46.9331 557.432 47.0525 557.54 47.1479C557.648 47.2315 557.786 47.2732 557.954 47.2732ZM572.022 45.8055C574.254 45.8055 575.94 45.3281 577.08 44.3735C578.232 43.4069 578.808 42.0525 578.808 40.3103C578.808 39.5108 578.652 38.7948 578.34 38.1623C578.04 37.5179 577.602 36.975 577.026 36.5334C576.45 36.08 575.742 35.7339 574.902 35.4953C574.062 35.2566 573.108 35.1373 572.04 35.1373H565.632V45.8055H572.022ZM565.632 23.3951V33.7948H571.14C572.316 33.7948 573.318 33.6456 574.146 33.3473C574.986 33.049 575.67 32.6552 576.198 32.1659C576.738 31.6767 577.134 31.1218 577.386 30.5013C577.638 29.8807 577.764 29.2423 577.764 28.586C577.764 26.8796 577.218 25.5908 576.126 24.7197C575.046 23.8366 573.372 23.3951 571.104 23.3951H565.632ZM571.104 21.9452C572.556 21.9452 573.816 22.0884 574.884 22.3748C575.952 22.6612 576.834 23.0848 577.53 23.6457C578.226 24.1946 578.742 24.8688 579.078 25.6684C579.414 26.4679 579.582 27.3748 579.582 28.3891C579.582 29.0574 579.462 29.7017 579.222 30.3223C578.994 30.9428 578.658 31.5156 578.214 32.0406C577.782 32.5657 577.242 33.0251 576.594 33.4189C575.958 33.8008 575.226 34.0931 574.398 34.296C576.402 34.5824 577.938 35.2447 579.006 36.2829C580.086 37.3091 580.626 38.6635 580.626 40.3461C580.626 41.4201 580.434 42.3866 580.05 43.2458C579.666 44.105 579.108 44.8329 578.376 45.4296C577.644 46.0262 576.744 46.4857 575.676 46.8079C574.608 47.1181 573.396 47.2732 572.04 47.2732H563.778V21.9452H571.104ZM595.992 34.0633C595.104 34.3258 594.096 34.4571 592.968 34.4571H588.558V23.3951H593.22C595.488 23.3951 597.21 23.8307 598.386 24.7018C599.574 25.5729 600.168 26.9094 600.168 28.7113C600.168 29.5944 600.006 30.3879 599.682 31.092C599.358 31.796 598.884 32.3986 598.26 32.8998C597.648 33.401 596.892 33.7888 595.992 34.0633ZM602.688 47.2732H604.272L595.506 36.3187C595.278 36.0203 595.02 35.7817 594.732 35.6027C595.848 35.4714 596.85 35.2148 597.738 34.833C598.638 34.4511 599.4 33.9619 600.024 33.3652C600.66 32.7566 601.146 32.0526 601.482 31.2531C601.818 30.4535 601.986 29.5705 601.986 28.6039C601.986 26.4201 601.254 24.7674 599.79 23.6457C598.338 22.5121 596.148 21.9452 593.22 21.9452H586.704V47.2732H588.558V35.8175H591.888C592.14 35.8175 592.35 35.8294 592.518 35.8533C592.698 35.8771 592.848 35.9189 592.968 35.9786C593.1 36.0263 593.214 36.0979 593.31 36.1934C593.418 36.2888 593.52 36.4022 593.616 36.5334L601.788 46.8079C601.908 46.9868 602.034 47.1121 602.166 47.1837C602.31 47.2434 602.484 47.2732 602.688 47.2732ZM610.606 47.2732H608.752V21.9452H610.606V47.2732ZM634.428 23.3056C634.596 23.0431 634.68 22.7984 634.68 22.5717V21.9452H616.266V23.4667H632.214L616.014 45.9666C615.954 46.062 615.9 46.1635 615.852 46.2709C615.816 46.3663 615.798 46.4797 615.798 46.611V47.2732H634.554V45.7518H618.264L634.428 23.3056ZM656.376 22.5717C656.376 22.7984 656.292 23.0431 656.124 23.3056L639.96 45.7518H656.25V47.2732H637.494V46.611C637.494 46.4797 637.512 46.3663 637.548 46.2709C637.596 46.1635 637.65 46.062 637.71 45.9666L653.91 23.4667H637.962V21.9452H656.376V22.5717ZM481.3 49.5107C484.779 49.5107 487.6 46.7058 487.6 43.2458C487.6 39.7858 484.779 36.9809 481.3 36.9809C477.821 36.9809 475 39.7858 475 43.2458C475 46.7058 477.821 49.5107 481.3 49.5107Z" fill="#FFA6C1"/>
</g>
<rect x="244.801" y="17.7383" width="187.92" height="33.2934" fill="#31000F"/>
<g filter="url(#filter5_d_111_27)">
<path fill-rule="evenodd" clip-rule="evenodd" d="M445.5 6.99902H234V60.698H445.5V6.99902ZM260.1 24.4512C260.1 27.9112 257.279 30.7161 253.8 30.7161C250.321 30.7161 247.5 27.9112 247.5 24.4512C247.5 20.9912 250.321 18.1863 253.8 18.1863C257.279 18.1863 260.1 20.9912 260.1 24.4512ZM272.7 30.7161C276.179 30.7161 279 27.9112 279 24.4512C279 20.9912 276.179 18.1863 272.7 18.1863C269.221 18.1863 266.4 20.9912 266.4 24.4512C266.4 27.9112 269.221 30.7161 272.7 30.7161ZM295.866 34.117V23.4667H309.276V21.9452H294.012V47.2732H295.866V35.6385H307.476V34.117H295.866ZM321.058 25.2746L326.242 38.0728H314.848L320.032 25.2925C320.128 25.0777 320.218 24.845 320.302 24.5944C320.386 24.3319 320.464 24.0574 320.536 23.771C320.704 24.3557 320.878 24.8569 321.058 25.2746ZM330.454 47.2732H331.876L321.454 21.9452H319.636L309.214 47.2732H310.618C310.786 47.2732 310.93 47.2255 311.05 47.13C311.17 47.0346 311.254 46.9212 311.302 46.79L314.29 39.4332H326.8L329.788 46.79C329.848 46.9331 329.932 47.0525 330.04 47.1479C330.148 47.2315 330.286 47.2732 330.454 47.2732ZM344.522 45.8055C346.754 45.8055 348.44 45.3281 349.58 44.3735C350.732 43.4069 351.308 42.0525 351.308 40.3103C351.308 39.5108 351.152 38.7948 350.84 38.1623C350.54 37.5179 350.102 36.975 349.526 36.5334C348.95 36.08 348.242 35.7339 347.402 35.4953C346.562 35.2566 345.608 35.1373 344.54 35.1373H338.132V45.8055H344.522ZM338.132 23.3951V33.7948H343.64C344.816 33.7948 345.818 33.6456 346.646 33.3473C347.486 33.049 348.17 32.6552 348.698 32.1659C349.238 31.6767 349.634 31.1218 349.886 30.5013C350.138 29.8807 350.264 29.2423 350.264 28.586C350.264 26.8796 349.718 25.5908 348.626 24.7197C347.546 23.8366 345.872 23.3951 343.604 23.3951H338.132ZM343.604 21.9452C345.056 21.9452 346.316 22.0884 347.384 22.3748C348.452 22.6612 349.334 23.0848 350.03 23.6457C350.726 24.1946 351.242 24.8688 351.578 25.6684C351.914 26.4679 352.082 27.3748 352.082 28.3891C352.082 29.0574 351.962 29.7017 351.722 30.3223C351.494 30.9428 351.158 31.5156 350.714 32.0406C350.282 32.5657 349.742 33.0251 349.094 33.4189C348.458 33.8008 347.726 34.0931 346.898 34.296C348.902 34.5824 350.438 35.2447 351.506 36.2829C352.586 37.3091 353.126 38.6635 353.126 40.3461C353.126 41.4201 352.934 42.3866 352.55 43.2458C352.166 44.105 351.608 44.8329 350.876 45.4296C350.144 46.0262 349.244 46.4857 348.176 46.8079C347.108 47.1181 345.896 47.2732 344.54 47.2732H336.278V21.9452H343.604ZM368.492 34.0633C367.604 34.3258 366.596 34.4571 365.468 34.4571H361.058V23.3951H365.72C367.988 23.3951 369.71 23.8307 370.886 24.7018C372.074 25.5729 372.668 26.9094 372.668 28.7113C372.668 29.5944 372.506 30.3879 372.182 31.092C371.858 31.796 371.384 32.3986 370.76 32.8998C370.148 33.401 369.392 33.7888 368.492 34.0633ZM375.188 47.2732H376.772L368.006 36.3187C367.778 36.0203 367.52 35.7817 367.232 35.6027C368.348 35.4714 369.35 35.2148 370.238 34.833C371.138 34.4511 371.9 33.9619 372.524 33.3652C373.16 32.7566 373.646 32.0526 373.982 31.2531C374.318 30.4535 374.486 29.5705 374.486 28.6039C374.486 26.4201 373.754 24.7674 372.29 23.6457C370.838 22.5121 368.648 21.9452 365.72 21.9452H359.204V47.2732H361.058V35.8175H364.388C364.64 35.8175 364.85 35.8294 365.018 35.8533C365.198 35.8771 365.348 35.9189 365.468 35.9786C365.6 36.0263 365.714 36.0979 365.81 36.1934C365.918 36.2888 366.02 36.4022 366.116 36.5334L374.288 46.8079C374.408 46.9868 374.534 47.1121 374.666 47.1837C374.81 47.2434 374.984 47.2732 375.188 47.2732ZM383.106 47.2732H381.252V21.9452H383.106V47.2732ZM406.928 23.3056C407.096 23.0431 407.18 22.7984 407.18 22.5717V21.9452H388.766V23.4667H404.714L388.514 45.9666C388.454 46.062 388.4 46.1635 388.352 46.2709C388.316 46.3663 388.298 46.4797 388.298 46.611V47.2732H407.054V45.7518H390.764L406.928 23.3056ZM428.876 22.5717C428.876 22.7984 428.792 23.0431 428.624 23.3056L412.46 45.7518H428.75V47.2732H409.994V46.611C409.994 46.4797 410.012 46.3663 410.048 46.2709C410.096 46.1635 410.15 46.062 410.21 45.9666L426.41 23.4667H410.462V21.9452H428.876V22.5717ZM253.8 49.5107C257.279 49.5107 260.1 46.7058 260.1 43.2458C260.1 39.7858 257.279 36.9809 253.8 36.9809C250.321 36.9809 247.5 39.7858 247.5 43.2458C247.5 46.7058 250.321 49.5107 253.8 49.5107Z" fill="#FFA6C1"/>
</g>
<rect x="699.801" y="17.7383" width="187.92" height="33.2934" fill="#31000F"/>
<g filter="url(#filter6_d_111_27)">
<path fill-rule="evenodd" clip-rule="evenodd" d="M900.5 6.99902H689V60.698H900.5V6.99902ZM715.1 24.4512C715.1 27.9112 712.279 30.7161 708.8 30.7161C705.321 30.7161 702.5 27.9112 702.5 24.4512C702.5 20.9912 705.321 18.1863 708.8 18.1863C712.279 18.1863 715.1 20.9912 715.1 24.4512ZM727.7 30.7161C731.179 30.7161 734 27.9112 734 24.4512C734 20.9912 731.179 18.1863 727.7 18.1863C724.221 18.1863 721.4 20.9912 721.4 24.4512C721.4 27.9112 724.221 30.7161 727.7 30.7161ZM750.866 34.117V23.4667H764.276V21.9452H749.012V47.2732H750.866V35.6385H762.476V34.117H750.866ZM776.058 25.2746L781.242 38.0728H769.848L775.032 25.2925C775.128 25.0777 775.218 24.845 775.302 24.5944C775.386 24.3319 775.464 24.0574 775.536 23.771C775.704 24.3557 775.878 24.8569 776.058 25.2746ZM785.454 47.2732H786.876L776.454 21.9452H774.636L764.214 47.2732H765.618C765.786 47.2732 765.93 47.2255 766.05 47.13C766.17 47.0346 766.254 46.9212 766.302 46.79L769.29 39.4332H781.8L784.788 46.79C784.848 46.9331 784.932 47.0525 785.04 47.1479C785.148 47.2315 785.286 47.2732 785.454 47.2732ZM799.522 45.8055C801.754 45.8055 803.44 45.3281 804.58 44.3735C805.732 43.4069 806.308 42.0525 806.308 40.3103C806.308 39.5108 806.152 38.7948 805.84 38.1623C805.54 37.5179 805.102 36.975 804.526 36.5334C803.95 36.08 803.242 35.7339 802.402 35.4953C801.562 35.2566 800.608 35.1373 799.54 35.1373H793.132V45.8055H799.522ZM793.132 23.3951V33.7948H798.64C799.816 33.7948 800.818 33.6456 801.646 33.3473C802.486 33.049 803.17 32.6552 803.698 32.1659C804.238 31.6767 804.634 31.1218 804.886 30.5013C805.138 29.8807 805.264 29.2423 805.264 28.586C805.264 26.8796 804.718 25.5908 803.626 24.7197C802.546 23.8366 800.872 23.3951 798.604 23.3951H793.132ZM798.604 21.9452C800.056 21.9452 801.316 22.0884 802.384 22.3748C803.452 22.6612 804.334 23.0848 805.03 23.6457C805.726 24.1946 806.242 24.8688 806.578 25.6684C806.914 26.4679 807.082 27.3748 807.082 28.3891C807.082 29.0574 806.962 29.7017 806.722 30.3223C806.494 30.9428 806.158 31.5156 805.714 32.0406C805.282 32.5657 804.742 33.0251 804.094 33.4189C803.458 33.8008 802.726 34.0931 801.898 34.296C803.902 34.5824 805.438 35.2447 806.506 36.2829C807.586 37.3091 808.126 38.6635 808.126 40.3461C808.126 41.4201 807.934 42.3866 807.55 43.2458C807.166 44.105 806.608 44.8329 805.876 45.4296C805.144 46.0262 804.244 46.4857 803.176 46.8079C802.108 47.1181 800.896 47.2732 799.54 47.2732H791.278V21.9452H798.604ZM823.492 34.0633C822.604 34.3258 821.596 34.4571 820.468 34.4571H816.058V23.3951H820.72C822.988 23.3951 824.71 23.8307 825.886 24.7018C827.074 25.5729 827.668 26.9094 827.668 28.7113C827.668 29.5944 827.506 30.3879 827.182 31.092C826.858 31.796 826.384 32.3986 825.76 32.8998C825.148 33.401 824.392 33.7888 823.492 34.0633ZM830.188 47.2732H831.772L823.006 36.3187C822.778 36.0203 822.52 35.7817 822.232 35.6027C823.348 35.4714 824.35 35.2148 825.238 34.833C826.138 34.4511 826.9 33.9619 827.524 33.3652C828.16 32.7566 828.646 32.0526 828.982 31.2531C829.318 30.4535 829.486 29.5705 829.486 28.6039C829.486 26.4201 828.754 24.7674 827.29 23.6457C825.838 22.5121 823.648 21.9452 820.72 21.9452H814.204V47.2732H816.058V35.8175H819.388C819.64 35.8175 819.85 35.8294 820.018 35.8533C820.198 35.8771 820.348 35.9189 820.468 35.9786C820.6 36.0263 820.714 36.0979 820.81 36.1934C820.918 36.2888 821.02 36.4022 821.116 36.5334L829.288 46.8079C829.408 46.9868 829.534 47.1121 829.666 47.1837C829.81 47.2434 829.984 47.2732 830.188 47.2732ZM838.106 47.2732H836.252V21.9452H838.106V47.2732ZM861.928 23.3056C862.096 23.0431 862.18 22.7984 862.18 22.5717V21.9452H843.766V23.4667H859.714L843.514 45.9666C843.454 46.062 843.4 46.1635 843.352 46.2709C843.316 46.3663 843.298 46.4797 843.298 46.611V47.2732H862.054V45.7518H845.764L861.928 23.3056ZM883.876 22.5717C883.876 22.7984 883.792 23.0431 883.624 23.3056L867.46 45.7518H883.75V47.2732H864.994V46.611C864.994 46.4797 865.012 46.3663 865.048 46.2709C865.096 46.1635 865.15 46.062 865.21 45.9666L881.41 23.4667H865.462V21.9452H883.876V22.5717ZM708.8 49.5107C712.279 49.5107 715.1 46.7058 715.1 43.2458C715.1 39.7858 712.279 36.9809 708.8 36.9809C705.321 36.9809 702.5 39.7858 702.5 43.2458C702.5 46.7058 705.321 49.5107 708.8 49.5107Z" fill="#FFA6C1"/>
</g>
<defs>
<filter id="filter0_d_111_27" x="1138.25" y="0.697266" width="223.5" height="65.6992" filterUnits="userSpaceOnUse" color-interpolation-filters="sRGB">
<feFlood flood-opacity="0" result="BackgroundImageFix"/>
<feColorMatrix in="SourceAlpha" type="matrix" values="0 0 0 0 0 0 0 0 0 0 0 0 0 0 0 0 0 0 127 0" result="hardAlpha"/>
<feOffset/>
<feGaussianBlur stdDeviation="3"/>
<feComposite in2="hardAlpha" operator="out"/>
<feColorMatrix type="matrix" values="0 0 0 0 0.0509804 0 0 0 0 0.0666667 0 0 0 0 0.0901961 0 0 0 0.16 0"/>
<feBlend mode="normal" in2="BackgroundImageFix" result="effect1_dropShadow_111_27"/>
<feBlend mode="normal" in="SourceGraphic" in2="effect1_dropShadow_111_27" result="shape"/>
</filter>
<filter id="filter1_d_111_27" x="910.746" y="0.697266" width="223.5" height="65.6992" filterUnits="userSpaceOnUse" color-interpolation-filters="sRGB">
<feFlood flood-opacity="0" result="BackgroundImageFix"/>
<feColorMatrix in="SourceAlpha" type="matrix" values="0 0 0 0 0 0 0 0 0 0 0 0 0 0 0 0 0 0 127 0" result="hardAlpha"/>
<feOffset/>
<feGaussianBlur stdDeviation="3"/>
<feComposite in2="hardAlpha" operator="out"/>
<feColorMatrix type="matrix" values="0 0 0 0 0.0509804 0 0 0 0 0.0666667 0 0 0 0 0.0901961 0 0 0 0.16 0"/>
<feBlend mode="normal" in2="BackgroundImageFix" result="effect1_dropShadow_111_27"/>
<feBlend mode="normal" in="SourceGraphic" in2="effect1_dropShadow_111_27" result="shape"/>
</filter>
<filter id="filter2_d_111_27" x="1365.75" y="0.697266" width="223.5" height="65.6992" filterUnits="userSpaceOnUse" color-interpolation-filters="sRGB">
<feFlood flood-opacity="0" result="BackgroundImageFix"/>
<feColorMatrix in="SourceAlpha" type="matrix" values="0 0 0 0 0 0 0 0 0 0 0 0 0 0 0 0 0 0 127 0" result="hardAlpha"/>
<feOffset/>
<feGaussianBlur stdDeviation="3"/>
<feComposite in2="hardAlpha" operator="out"/>
<feColorMatrix type="matrix" values="0 0 0 0 0.0509804 0 0 0 0 0.0666667 0 0 0 0 0.0901961 0 0 0 0.16 0"/>
<feBlend mode="normal" in2="BackgroundImageFix" result="effect1_dropShadow_111_27"/>
<feBlend mode="normal" in="SourceGraphic" in2="effect1_dropShadow_111_27" result="shape"/>
</filter>
<filter id="filter3_d_111_27" x="0.5" y="0.999023" width="223.5" height="65.6992" filterUnits="userSpaceOnUse" color-interpolation-filters="sRGB">
<feFlood flood-opacity="0" result="BackgroundImageFix"/>
<feColorMatrix in="SourceAlpha" type="matrix" values="0 0 0 0 0 0 0 0 0 0 0 0 0 0 0 0 0 0 127 0" result="hardAlpha"/>
<feOffset/>
<feGaussianBlur stdDeviation="3"/>
<feComposite in2="hardAlpha" operator="out"/>
<feColorMatrix type="matrix" values="0 0 0 0 0.0509804 0 0 0 0 0.0666667 0 0 0 0 0.0901961 0 0 0 0.16 0"/>
<feBlend mode="normal" in2="BackgroundImageFix" result="effect1_dropShadow_111_27"/>
<feBlend mode="normal" in="SourceGraphic" in2="effect1_dropShadow_111_27" result="shape"/>
</filter>
<filter id="filter4_d_111_27" x="455.5" y="0.999023" width="223.5" height="65.6992" filterUnits="userSpaceOnUse" color-interpolation-filters="sRGB">
<feFlood flood-opacity="0" result="BackgroundImageFix"/>
<feColorMatrix in="SourceAlpha" type="matrix" values="0 0 0 0 0 0 0 0 0 0 0 0 0 0 0 0 0 0 127 0" result="hardAlpha"/>
<feOffset/>
<feGaussianBlur stdDeviation="3"/>
<feComposite in2="hardAlpha" operator="out"/>
<feColorMatrix type="matrix" values="0 0 0 0 0.0509804 0 0 0 0 0.0666667 0 0 0 0 0.0901961 0 0 0 0.16 0"/>
<feBlend mode="normal" in2="BackgroundImageFix" result="effect1_dropShadow_111_27"/>
<feBlend mode="normal" in="SourceGraphic" in2="effect1_dropShadow_111_27" result="shape"/>
</filter>
<filter id="filter5_d_111_27" x="228" y="0.999023" width="223.5" height="65.6992" filterUnits="userSpaceOnUse" color-interpolation-filters="sRGB">
<feFlood flood-opacity="0" result="BackgroundImageFix"/>
<feColorMatrix in="SourceAlpha" type="matrix" values="0 0 0 0 0 0 0 0 0 0 0 0 0 0 0 0 0 0 127 0" result="hardAlpha"/>
<feOffset/>
<feGaussianBlur stdDeviation="3"/>
<feComposite in2="hardAlpha" operator="out"/>
<feColorMatrix type="matrix" values="0 0 0 0 0.0509804 0 0 0 0 0.0666667 0 0 0 0 0.0901961 0 0 0 0.16 0"/>
<feBlend mode="normal" in2="BackgroundImageFix" result="effect1_dropShadow_111_27"/>
<feBlend mode="normal" in="SourceGraphic" in2="effect1_dropShadow_111_27" result="shape"/>
</filter>
<filter id="filter6_d_111_27" x="683" y="0.999023" width="223.5" height="65.6992" filterUnits="userSpaceOnUse" color-interpolation-filters="sRGB">
<feFlood flood-opacity="0" result="BackgroundImageFix"/>
<feColorMatrix in="SourceAlpha" type="matrix" values="0 0 0 0 0 0 0 0 0 0 0 0 0 0 0 0 0 0 127 0" result="hardAlpha"/>
<feOffset/>
<feGaussianBlur stdDeviation="3"/>
<feComposite in2="hardAlpha" operator="out"/>
<feColorMatrix type="matrix" values="0 0 0 0 0.0509804 0 0 0 0 0.0666667 0 0 0 0 0.0901961 0 0 0 0.16 0"/>
<feBlend mode="normal" in2="BackgroundImageFix" result="effect1_dropShadow_111_27"/>
<feBlend mode="normal" in="SourceGraphic" in2="effect1_dropShadow_111_27" result="shape"/>
</filter>
</defs>
</svg>
